<svg xmlns="http://www.w3.org/2000/svg" viewBox="0 0 20 20">
  <polygon points="5.74 7.13 7 9.5 4.15 7.72 3.2 7.12 3 7 7 4.5 6.17 6.05 5.67 7 5.74 7.13"></polygon>
  <polygon points="16 12.5 13.5 16.5 12.66 15.15 11.92 13.97 11 12.5 12 13.03 12.98 13.55 13.5 13.83 16 12.5"></polygon>
  <rect x="2" y="2.5" width="1" height="15"></rect>
  <rect x="3" y="16.5" width="15" height="1"></rect>
  <path d="M14,13c0,.18,0,.37,0,.55v0a6.82,6.82,0,0,1-.32,1.57l-.74-1.18L13,13.5c0-.14,0-.31,0-.47v0a6,6,0,0,0-6-6,6.74,6.74,0,0,0-1.26.13l-.29.07a5.61,5.61,0,0,0-1.3.52l-1-.6a7.07,7.07,0,0,1,2-.88,6.78,6.78,0,0,1,1-.19A7.7,7.7,0,0,1,7,6a7,7,0,0,1,7,7Z"></path>
</svg>