<svg xmlns="http://www.w3.org/2000/svg" viewBox="0 0 20 20">
<polygon points="16.7 14.29 17.39 13.6 14.29 10.49 18 10.49 18 9.51 14.29 9.51 17.39 6.4 16.7 5.71 12.89 9.51 10.49 9.51 10.49 7.11 14.29 3.3 13.6 2.61 10.49 5.71 10.49 2 9.51 2 9.51 5.71 6.4 2.61 5.71 3.3 9.51 7.11 9.51 9.51 7.11 9.51 3.31 5.71 2.61 6.4 5.71 9.51 2 9.51 2 10.49 5.71 10.49 2.61 13.6 3.31 14.29 7.11 10.49 9.51 10.49 9.51 12.89 5.71 16.7 6.4 17.39 9.51 14.29 9.51 18 10.49 18 10.49 14.29 13.6 17.39 14.29 16.7 10.49 12.89 10.49 10.49 12.89 10.49 16.7 14.29"></polygon>
</svg>