<svg xmlns="http://www.w3.org/2000/svg" viewBox="0 0 20 20">
<path d="M8.44,4.08L13,6.65L8.44,9.14L4,6.65L8.44,4.08ZM8.44,2.92L2,6.67L2.93,7.19L8.44,10.28L14.06,7.18L15,6.67L8.43,2.92L8.44,2.92Z"></path>
<path d="M18,12.71L16.38,12.71L17.76,11.33L17.24,10.82L15.35,12.71L14.36,12.71L14.36,11.73L16.26,9.83L15.74,9.32L14.36,10.7L14.36,9.07L13.64,9.07L13.64,10.7L12.26,9.32L11.74,9.83L13.64,11.73L13.64,12.71L12.65,12.71L10.76,10.82L10.24,11.33L11.62,12.71L10,12.71L10,13.44L11.62,13.44L10.24,14.82L10.76,15.33L12.65,13.44L13.64,13.44L13.64,14.43L11.74,16.32L12.26,16.83L13.64,15.45L13.64,17.07L14.36,17.07L14.36,15.45L15.74,16.83L16.26,16.32L14.36,14.43L14.36,13.44L15.35,13.44L17.24,15.33L17.76,14.82L16.38,13.44L18,13.44L18,12.71Z"></path>
</svg>