<svg xmlns="http://www.w3.org/2000/svg" viewBox="0 0 20 20">
<path d="M8.6,4.15L13.12,6.73L8.61,9.22L4.18,6.73L8.6,4.15ZM8.6,3L2.17,6.74L3.09,7.27L8.61,10.36L14.23,7.26L15.17,6.74L8.6,3Z"/>
<path d="M14.67,10C12.737,10,11.17,11.567,11.17,13.5C11.17,15.433,12.737,17,14.67,17C16.603,17,18.17,15.433,18.17,13.5C18.17,11.567,16.603,10,14.67,10ZM12.17,13.5C12.169,13.01,12.3115,12.5301,12.58,12.12L16,15.58C15.5965,15.8557,15.1187,16.0021,14.63,16C13.2651,15.9783,12.17,14.8654,12.17,13.5ZM16.75,14.88L13.29,11.42C13.6966,11.143,14.178,10.9965,14.67,11C15.5927,10.9948,16.4427,11.5003,16.8787,12.3135C17.3146,13.1268,17.2651,14.1144,16.75,14.88Z"/>
</svg>