<svg xmlns="http://www.w3.org/2000/svg" viewBox="0 0 20 20">
<path d="M6.248,7.387C6.129,7.066,6.05,6.725,6.017,6.371L2.172,8.609l1.14,0.64l6.78,3.81l6.91-3.82l1.16-0.63l-4.168-2.378c-0.021,0.362-0.09,0.711-0.2,1.04l2.299,1.318l-6,3.32l-5.91-3.32L6.248,7.387Z"></path>
<path d="M10.252,16.459l7.92-4.61l-1.17-0.65l-6.78,4l-6.9-3.99l-1.15,0.64L10.252,16.459Z"></path>
<path d="M10,9c-1.655,0-3-1.345-3-3s1.345-3,3-3s3,1.345,3,3S11.655,9,10,9z M10,3.828C8.8,3.828,7.828,4.8,7.828,6S8.8,8.172,10,8.172S12.172,7.2,12.172,6S11.2,3.828,10,3.828z"></path>
</svg>