<svg xmlns="http://www.w3.org/2000/svg" viewBox="0 0 20 20">
<path d="M8.44,4.08L13,6.65L8.44,9.14L4,6.65L8.44,4.08ZM8.44,2.92L2,6.67L2.93,7.19L8.44,10.28L14.06,7.18L15,6.67L8.43,2.92L8.44,2.92Z"></path>
<ellipse cx="14.17" cy="13" rx="2" ry="2"></ellipse>
<ellipse cx="14.17" cy="9.5" rx="0.5" ry="0.5"></ellipse>
<ellipse cx="14.17" cy="16.5" rx="0.5" ry="0.5"></ellipse>
<ellipse cx="11.69" cy="10.53" rx="0.5" ry="0.5"></ellipse>
<ellipse cx="16.64" cy="15.47" rx="0.5" ry="0.5"></ellipse>
<ellipse cx="10.67" cy="13.03" rx="0.5" ry="0.5"></ellipse>
<ellipse cx="17.67" cy="12.97" rx="0.5" ry="0.5"></ellipse>
<ellipse cx="11.71" cy="15.49" rx="0.5" ry="0.5"></ellipse>
<ellipse cx="16.62" cy="10.51" rx="0.5" ry="0.5"></ellipse>
</svg>