<svg xmlns="http://www.w3.org/2000/svg" viewBox="0 0 20 20">
<rect x="1.75" y="15.45" width="2" height="2" fill="var(--el-color-primary)"></rect>
<rect x="15.25" y="16.05" width="3" height=".8" fill="var(--el-color-primary)"></rect>
<rect x="16.35" y="14.95" width=".8" height="3" fill="var(--el-color-primary)"></rect>
<path d="M2.51,14.45h.81c.97-6.55,6.62-11.6,13.44-11.6v-.8C9.49,2.05,3.48,7.46,2.51,14.45Z"></path>
<path d="M5.44,14.16c-.1,0-.2-.04-.28-.12-.16-.16-.16-.41,0-.57L16.47,2.17c.16-.16,.41-.16,.57,0s.16,.41,0,.57L5.72,14.05c-.08,.08-.18,.12-.28,.12Z"></path>
</svg>