<svg xmlns="http://www.w3.org/2000/svg" viewBox="0 0 20 20">
<rect x="2.1" y="16.05" width="3" height=".8" fill="var(--el-color-primary)"></rect>
<rect x="3.2" y="14.95" width=".8" height="3" fill="var(--el-color-primary)"></rect>
<rect x="15.9" y="15.45" width="2" height="2" fill="var(--el-color-primary)"></rect>
<path d="M3.21,13.95h.81C5.19,7.64,10.73,2.85,17.38,2.85v-.8C10.29,2.05,4.4,7.2,3.21,13.95Z"></path>
<path d="M6.19,14.16c-.1,0-.2-.04-.28-.12-.16-.16-.16-.41,0-.57L17.22,2.17c.16-.16,.41-.16,.57,0s.16,.41,0,.57L6.47,14.05c-.08,.08-.18,.12-.28,.12Z"></path>
</svg>