<svg xmlns="http://www.w3.org/2000/svg" viewBox="0 0 20 20">
  <g>
    <path d="M10,12.083333015441895L18.333333,12.083333015441895L18.333333,13.333333015441895L10,13.333333015441895L10,12.083333015441895ZM10,4.5833330154418945L18.333333,4.5833330154418945L18.333333,5.8333330154418945L10,5.8333330154418945L10,4.5833330154418945ZM10,7.916666315441894L18.333333,7.916666315441894L18.333333,9.166666015441894L10,9.166666015441894L10,7.916666315441894Z" fill-opacity="1"></path>
    <path d="M1.6666666269302368,7.916666315441894L9.999999626930236,7.916666315441894L9.999999626930236,10.416666015441894L1.6666666269302368,10.416666015441894L1.6666666269302368,7.916666315441894ZM1.6666666269302368,6.666666315441894L9.999999626930236,6.666666315441894L9.999999626930236,4.5833330154418945L1.6666666269302368,4.5833330154418945L1.6666666269302368,6.666666315441894ZM1.6666666269302368,15.416666015441894L9.999999626930236,15.416666015441894L9.999999626930236,12.083333015441895L1.6666666269302368,12.083333015441895L1.6666666269302368,15.416666015441894Z" fill-opacity="1"></path>
  </g>
</svg>