<svg xmlns="http://www.w3.org/2000/svg" width="1em" height="1em" viewBox="0 0 24 24"><path stroke="currentColor" d="M2.25,2.25C2.25,2.25,2.25,7.1284,2.25,7.1284C2.25,7.1284,7.1284,7.1284,7.1284,7.1284C7.1284,7.1284,7.1284,2.25,7.1284,2.25C7.1284,2.25,2.25,2.25,2.25,2.25C2.25,2.25,2.25,2.25,2.25,2.25ZM6.151668,6.151668C6.151668,6.151668,3.2275,6.151668,3.2275,6.151668C3.2275,6.151668,3.2275,3.2275,3.2275,3.2275C3.2275,3.2275,6.151668,3.2275,6.151668,3.2275C6.151668,3.2275,6.151668,6.151668,6.151668,6.151668C6.151668,6.151668,6.151668,6.151668,6.151668,6.151668Z"></path><path d="M2.25,2.25C2.25,2.25,2.25,7.1284,2.25,7.1284C2.25,7.1284,7.1284,7.1284,7.1284,7.1284C7.1284,7.1284,7.1284,2.25,7.1284,2.25C7.1284,2.25,2.25,2.25,2.25,2.25C2.25,2.25,2.25,2.25,2.25,2.25ZM6.151668,6.151668C6.151668,6.151668,3.2275,6.151668,3.2275,6.151668C3.2275,6.151668,3.2275,3.2275,3.2275,3.2275C3.2275,3.2275,6.151668,3.2275,6.151668,3.2275C6.151668,3.2275,6.151668,6.151668,6.151668,6.151668C6.151668,6.151668,6.151668,6.151668,6.151668,6.151668Z" fill="#FFFFFF"></path><path d="M2.25,2.25C2.25,2.25,2.25,7.1284,2.25,7.1284C2.25,7.1284,7.1284,7.1284,7.1284,7.1284C7.1284,7.1284,7.1284,2.25,7.1284,2.25C7.1284,2.25,2.25,2.25,2.25,2.25C2.25,2.25,2.25,2.25,2.25,2.25ZM6.151668,6.151668C6.151668,6.151668,3.2275,6.151668,3.2275,6.151668C3.2275,6.151668,3.2275,3.2275,3.2275,3.2275C3.2275,3.2275,6.151668,3.2275,6.151668,3.2275C6.151668,3.2275,6.151668,6.151668,6.151668,6.151668C6.151668,6.151668,6.151668,6.151668,6.151668,6.151668Z"></path><path d="M5.1749,20.7725C5.1749,20.7725,5.1749,7.1284,5.1749,7.1284C5.1749,7.1284,4.2042,7.1284,4.2042,7.1284C4.2042,7.1284,4.2042,21.7492,4.2042,21.7492C4.2042,21.7492,21.7492,21.7492,21.7492,21.7492C21.7492,21.7492,21.7492,4.2042,21.7492,4.2042C21.7492,4.2042,7.1284,4.2042,7.1284,4.2042C7.1284,4.2042,7.1284,5.1749,7.1284,5.1749C7.1284,5.1749,20.7725,5.1749,20.7725,5.1749C20.7725,5.1749,20.7725,20.7725,20.7725,20.7725C20.7725,20.7725,5.1749,20.7725,5.1749,20.7725C5.1749,20.7725,5.1749,20.7725,5.1749,20.7725Z"></path></svg>