<svg xmlns="http://www.w3.org/2000/svg" viewBox="0 0 20 20">
  <path d="M16.98 11L18.5 11L18.5 10L16.98 10C16.86 8.13 16.05 6.44 14.8 5.2L16.88 2.83L16.12 2.17L14.05 4.54C12.79 3.57 11.21 3 9.5 3C5.36 3 2 6.36 2 10.5C2 14.64 5.36 18 9.5 18C13.47 18 16.73 14.91 16.98 11ZM15.98 10C15.86 8.43 15.18 7.01 14.14 5.95L10.6 10L15.98 10ZM13.39 5.29L8.4 11L15.98 11C15.73 14.36 12.92 17 9.5 17C5.91 17 3 14.09 3 10.5C3 6.91 5.91 4 9.5 4C10.96 4 12.31 4.48 13.39 5.29Z" fill-rule="evenodd" fill="currentColor"/>
</svg>