<svg xmlns="http://www.w3.org/2000/svg" version="1.1" viewBox="0 0 20 20">
  <path d="M17.366041494140624,8.13321261171875C16.667592494140624,4.38473101171875,13.396319494140625,1.66668701171875,9.583322994140625,1.66668701171875C5.211068394140625,1.66668701171875,1.666656494140625,5.21109891171875,1.666656494140625,9.58335351171875C1.6666564941406257,13.42974001171875,4.431342794140625,16.71955701171875,8.220290194140624,17.381800011718752L8.429374694140625,16.57206001171875C5.009032494140625,16.00730701171875,2.499989804140625,13.05000701171875,2.499989804140625,9.58335351171875C2.499989804140625,5.67133621171875,5.671305694140625,2.50002032171875,9.583322994140625,2.50002032171875C12.822601494140624,2.50002032171875,15.649155494140626,4.69743511171875,16.447924494140626,7.83668611171875Q16.522337494140626,7.82859321171875,16.600395494140624,7.82956071171875Q17.046328494140624,7.83507251171875,17.366041494140624,8.13321261171875Z" fill="currentColor"></path>
  <path d="M9.174291491940625,18.04064271171875L9.755228874140625,15.79055121171875C9.800609174140625,15.61478421171875,10.021303054140626,15.55478481171875,10.150497434140625,15.683092611718749L11.777121994140625,17.29854201171875C11.904038894140625,17.42458721171875,11.848330494140626,17.639632211718748,11.675921394140625,17.68919941171875L9.468359234140625,18.32384111171875C9.293019634140625,18.37424751171875,9.128953513140624,18.216246611718752,9.174291491940625,18.04064271171875ZM10.576257894140625,15.012749711718751L12.443039694140625,16.86670681171875C12.535153194140625,16.95818801171875,12.684499694140625,16.95818801171875,12.776614194140624,16.86670681171875L18.264235494140625,11.41677901171875C18.355170294140628,11.32647181171875,18.356506394140624,11.18046881171875,18.267240494140623,11.08853471171875L16.470781294140625,9.23833659271875C16.379624394140624,9.14445133871875,16.228809794140624,9.14258715871875,16.135326394140627,9.23419014371875L10.577380994140626,14.68035941171875C10.484210394140625,14.77165551171875,10.483706394140626,14.92083451171875,10.576257894140625,15.012749711718751Z" fill="currentColor"></path>
</svg>