<svg xmlns="http://www.w3.org/2000/svg" version="1.1" viewBox="0 0 40 40">
  <path d="M35.29108325386048,15C37.125226253860475,12.309847399999999,36.958467253860476,9.335468299999999,34.79083925386047,7.0296237C32.62321825386047,4.53162557,29.455148253860475,4.33947164,27.120786253860473,6.4531626C24.953160253860474,4.53162512,21.951835253860473,4.53162512,19.950952253860475,6.4531626C17.783325253860475,4.53162512,14.782001253860473,4.53162512,12.781115753860474,6.4531626C10.446751353860474,4.3394711,7.111944153860474,4.53162512,4.944319853860474,7.0296228C2.9434360238604738,9.335468299999999,2.7767065138604736,12.3098459,4.610849853860474,15C2.9434466638604735,17.497998000000003,2.9434466638604735,22.694155,4.610849853860474,25C2.7767063338604734,27.690151,2.9434360238604738,30.664532,5.111060153860474,32.970377C7.278683453860474,35.468374,10.446751353860474,35.660526000000004,12.781114853860474,33.546839C14.013456253860474,34.639273,15.515264253860474,35.110636,16.949504253860475,34.960924L17.384031253860474,33.278093Q15.695761253860473,33.903341,13.886703253860473,32.299662C13.250737453860474,31.735897,12.292436853860474,31.740944,11.662447253860474,32.311378000000005Q10.430524553860474,33.426844,9.001459353860474,33.325500000000005Q7.535682953860474,33.22155,6.369870153860473,31.878052C6.355376453860474,31.861349,6.3405518538604735,31.844936,6.325405153860474,31.828825Q3.8021785638604735,29.144703,5.9879074538604735,25.938877C6.383556653860474,25.358576,6.372957753860474,24.592518,5.961405753860474,24.023384Q5.026963953860474,22.731148,5.026963953860474,20.072058Q5.026963953860474,17.378647,5.997069853860474,15.925296C6.374311253860474,15.360136,6.3706860538604735,14.6225471,5.987907653860473,14.0611229Q3.8149851238604735,10.8740788,6.203129753860473,8.1219487Q7.366510153860474,6.7812542,8.914587753860474,6.6747454Q10.427746053860474,6.570639,11.662447253860474,7.6886220000000005C12.311335753860474,8.2761691,13.304180353860474,8.261601,13.935551253860474,7.655268899999999Q16.267856253860472,5.41545445,18.845364253860474,7.700341C19.495353253860472,8.2765367,20.478888253860475,8.2569213,21.105388253860475,7.6552677Q23.437688253860475,5.41545364,26.015201253860475,7.7003412C26.651166253860474,8.2641058,27.609466253860475,8.2590561,28.239455253860474,7.6886208Q29.471375253860472,6.5731552,30.900443253860473,6.6745013Q32.36622125386047,6.7784510000000004,33.532031253860474,8.1219487C33.546527253860475,8.1386516,33.56135125386047,8.1550651,33.576497253860474,8.1711793Q36.099740253860475,10.8553152,33.91402525386047,14.0611248C33.75512825386048,14.2941837,33.65797725386047,14.5637598,33.631677253860474,14.8446045Q33.79909825386048,14.8235569,33.975852253860474,14.8257475Q34.933356253860474,14.8375826,35.59989625386047,15.52399L35.66519325386047,15.591235C35.550366253860474,15.381103,35.425664253860475,15.183288,35.29108325386048,15ZM35.966336253860476,26.182783L34.676930253860476,27.463251Q35.393826253860475,29.732494,33.53202725386048,31.878052C33.517697253860476,31.894566,33.50369225386048,31.911364,33.490022253860474,31.928431Q32.454415253860475,33.221331,30.964744253860474,33.325373Q30.004237253860474,33.392458000000005,29.149894253860474,32.951971L27.929481253860473,34.163925C30.176993253860473,35.589745,33.01140925386048,35.191897999999995,34.790837253860474,32.970377C36.64204925386047,30.837021,37.033868253860476,28.496355,35.966336253860476,26.182783Z" fill="currentColor"></path>
  <path d="M18.34860205776758,36.08124306176758L19.51047686176758,31.58106006176758C19.601237461767578,31.22952606176758,20.042625161767578,31.109528061767577,20.301013961767577,31.36614306176758L23.55426316176758,34.59704206176758C23.808096861767577,34.84913206176758,23.69668006176758,35.27922206176758,23.35186196176758,35.378357061767574L18.936737541767577,36.647640061767575C18.586058351767576,36.74845306176758,18.257926098767577,36.43245106176758,18.34860205776758,36.08124306176758ZM21.15253496176758,30.02545706176758L24.88609836176758,33.73337206176758C25.07032536176758,33.91633406176758,25.36901856176758,33.91633406176758,25.553247461767576,33.73337206176758L36.52849006176758,22.833516161767577C36.710360061767574,22.65290166176758,36.71303206176758,22.36089566176758,36.534500061767574,22.17702746176758L32.941582061767576,18.47663122176758C32.75926806176758,18.288860715767576,32.45763906176758,18.28513235576758,32.27067206176758,18.46833832176758L21.15478106176758,29.36067706176758C20.96843986176758,29.543269061767578,20.96743176176758,29.84162706176758,21.15253496176758,30.02545706176758Z" fill="currentColor"></path>
</svg>