<svg xmlns="http://www.w3.org/2000/svg" viewBox="0 0 20 20">
  <path d="M9.17432200951875,18.0405816765625L9.75525939171875,15.7904901765625C9.80063969171875,15.6147231765625,10.02133357171875,15.5547237765625,10.15052795171875,15.683031576562499L11.77715251171875,17.2984809765625C11.90406941171875,17.4245261765625,11.848361011718751,17.639571176562498,11.67595191171875,17.6891383765625L9.46838975171875,18.3237800765625C9.29305015171875,18.3741864765625,9.12898403071875,18.216185576562502,9.17432200951875,18.0405816765625ZM10.57628841171875,15.012688676562501L12.44307021171875,16.8666457765625C12.53518371171875,16.9581269765625,12.68453021171875,16.9581269765625,12.776644711718749,16.8666457765625L18.26426601171875,11.4167179765625C18.355200811718753,11.3264107765625,18.35653691171875,11.1804077765625,18.267271011718748,11.0884736765625L16.47081181171875,9.2382755575625C16.37965491171875,9.1443903035625,16.22884031171875,9.1425261235625,16.135356911718752,9.2341291085625L10.57741151171875,14.6802983765625C10.48424091171875,14.7715944765625,10.48373691171875,14.9207734765625,10.57628841171875,15.012688676562501Z" fill="currentColor"></path>
  <path d="M2.90392155546875,5.159256496875Q3.5874485554687503,3.526783896875,5.36962965546875,1.9796301168750001L4.82333085546875,1.350341796875Q2.89402325546875,3.025221896875,2.13524830546875,4.837407396875Q1.35588505546875,6.698765796875,2.17010033546875,7.754392596875Q2.8780190554687497,8.672200696874999,4.15798805546875,8.731110096875Q4.98354415546875,8.769105896875,7.79926395546875,8.355049096875Q7.91502235546875,8.338027996874999,7.97723915546875,8.328885096875Q10.61277195546875,7.941609896875,10.81179905546875,9.044538496874999Q10.89994625546875,9.533011396875,10.45352935546875,10.221342096875Q9.94452285546875,11.006184596875,8.92241045546875,11.745775796875Q7.75625995546875,12.589590796875,7.54461765546875,13.608640796875Q7.34003445546875,14.593706796875,8.038234255468751,15.294116796875Q8.488736655468749,15.746045796875,9.390872455468749,15.746061796875L9.39088775546875,14.912728796875Q8.83469295546875,14.912718796875,8.62842035546875,14.705793796875Q8.247278655468751,14.323445796875,8.36054035546875,13.778095796875Q8.50649165546875,13.075342796875,9.41092495546875,12.420902796875Q11.93790935546875,10.592400596875,11.63188645546875,8.896551096875001Q11.28962325546875,6.999868396875,7.85608725546875,7.504405996875Q7.79599765546875,7.513235596875,7.67802525546875,7.530583396875Q4.94170025546875,7.932964296875,4.1963019554687495,7.898658296875Q3.30205045546875,7.857500096875,2.82995705546875,7.245439496875Q2.31173843546875,6.573570696875,2.90392155546875,5.159256496875ZM18.20416235546875,7.499967596875L15.75416335546875,1.399967826875Z" fill="currentColor"></path>
</svg>