<svg xmlns="http://www.w3.org/2000/svg" version="1.1" viewBox="0 0 20 20">
  <path d="M1.666717529296875,15.833333L1.666717529296875,4.1666666C1.666717529296875,3.24619204,2.412909569296875,2.5,3.333384129296875,2.5L16.666717529296875,2.5C17.587192529296875,2.5,18.333383529296874,3.24619204,18.333383529296874,4.1666666L18.333383529296874,9.127090500000001L17.500050529296875,8.268899000000001L17.500050529296875,4.1666666Q17.500050529296875,3.33333331,16.666717529296875,3.33333331L3.333384129296875,3.33333331Q2.500050839296875,3.33333331,2.500050839296875,4.1666666L2.500050839296875,15.833333Q2.500050839296875,16.666666,3.333384129296875,16.666666L8.404951129296876,16.666666L8.189774029296874,17.5L3.333384129296875,17.5C2.412909569296875,17.5,1.666717529296875,16.753808,1.666717529296875,15.833333ZM13.575839529296875,17.5L16.666717529296875,17.5C17.587192529296875,17.5,18.333383529296874,16.753808,18.333383529296874,15.833333L18.333383529296874,12.775434L17.500050529296875,13.602991L17.500050529296875,15.833333Q17.500050529296875,16.666666,16.666717529296875,16.666666L14.414989529296875,16.666666L13.575839529296875,17.5Z" fill="currentColor"></path>
  <path data-v-0e5e3464="" d="M9.174291491940625,18.04064271171875L9.755228874140625,15.79055121171875C9.800609174140625,15.61478421171875,10.021303054140626,15.55478481171875,10.150497434140625,15.683092611718749L11.777121994140625,17.29854201171875C11.904038894140625,17.42458721171875,11.848330494140626,17.639632211718748,11.675921394140625,17.68919941171875L9.468359234140625,18.32384111171875C9.293019634140625,18.37424751171875,9.128953513140624,18.216246611718752,9.174291491940625,18.04064271171875ZM10.576257894140625,15.012749711718751L12.443039694140625,16.86670681171875C12.535153194140625,16.95818801171875,12.684499694140625,16.95818801171875,12.776614194140624,16.86670681171875L18.264235494140625,11.41677901171875C18.355170294140628,11.32647181171875,18.356506394140624,11.18046881171875,18.267240494140623,11.08853471171875L16.470781294140625,9.23833659271875C16.379624394140624,9.14445133871875,16.228809794140624,9.14258715871875,16.135326394140627,9.23419014371875L10.577380994140626,14.68035941171875C10.484210394140625,14.77165551171875,10.483706394140626,14.92083451171875,10.576257894140625,15.012749711718751Z" fill="currentColor"></path>
</svg>